<svg width="35" height="36" viewBox="0 0 35 36" fill="none" xmlns="http://www.w3.org/2000/svg">
  <path
    d="M17.3333 33.328C8.76778 33.328 1.80556 26.3658 1.80556 17.8002C1.80556 9.23468 8.76778 2.27246 17.3333 2.27246C25.8989 2.27246 32.8611 9.23468 32.8611 17.8002C32.8611 26.3658 25.8989 33.328 17.3333 33.328ZM17.3333 4.43913C9.96667 4.43913 3.97222 10.4336 3.97222 17.8002C3.97222 25.1669 9.96667 31.1614 17.3333 31.1614C24.7 31.1614 30.6944 25.1669 30.6944 17.8002C30.6944 10.4336 24.7 4.43913 17.3333 4.43913Z"
    fill="currentColor" />
  <path
    d="M13.2456 22.9704C12.9711 22.9704 12.6967 22.8693 12.48 22.6527C12.0611 22.2338 12.0611 21.5404 12.48 21.1216L20.6556 12.946C21.0744 12.5271 21.7678 12.5271 22.1867 12.946C22.6056 13.3649 22.6056 14.0582 22.1867 14.4771L14.0111 22.6527C13.8089 22.8693 13.52 22.9704 13.2456 22.9704Z"
    fill="currentColor" />
  <path
    d="M21.4211 22.9704C21.1467 22.9704 20.8722 22.8693 20.6556 22.6527L12.48 14.4771C12.0611 14.0582 12.0611 13.3649 12.48 12.946C12.8989 12.5271 13.5922 12.5271 14.0111 12.946L22.1867 21.1216C22.6056 21.5404 22.6056 22.2338 22.1867 22.6527C21.97 22.8693 21.6956 22.9704 21.4211 22.9704Z"
    fill="currentColor" />
</svg>